<svg width="24" height="24" viewBox="0 0 24 24" fill="none" xmlns="http://www.w3.org/2000/svg">
<path d="M7.00488 8V6C7.00488 4.67392 7.53167 3.40215 8.46935 2.46447C9.40703 1.52678 10.6788 1 12.0049 1C13.331 1 14.6027 1.52678 15.5404 2.46447C16.4781 3.40215 17.0049 4.67392 17.0049 6V8H20.0049C20.2701 8 20.5245 8.10536 20.712 8.29289C20.8995 8.48043 21.0049 8.73478 21.0049 9V21C21.0049 21.2652 20.8995 21.5196 20.712 21.7071C20.5245 21.8946 20.2701 22 20.0049 22H4.00488C3.73967 22 3.48531 21.8946 3.29778 21.7071C3.11024 21.5196 3.00488 21.2652 3.00488 21V9C3.00488 8.73478 3.11024 8.48043 3.29778 8.29289C3.48531 8.10536 3.73967 8 4.00488 8H7.00488ZM7.00488 10H5.00488V20H19.0049V10H17.0049V12H15.0049V10H9.00488V12H7.00488V10ZM9.00488 8H15.0049V6C15.0049 5.20435 14.6888 4.44129 14.1262 3.87868C13.5636 3.31607 12.8005 3 12.0049 3C11.2092 3 10.4462 3.31607 9.88356 3.87868C9.32095 4.44129 9.00488 5.20435 9.00488 6V8Z" fill="#17181A"/>
</svg>
